%
M48
M71
T01C0.6000
T02C0.6096
T03C0.8128
T04C0.8500
T05C1.0160
T06C1.1176
T07C3.2000
%
T01
X590792Y117490
X590792Y225440
T02
X387592Y200040
X387592Y250840
X838442Y85740
X863842Y60340
X863842Y111140
T03
X292342Y92090
X343142Y92090
X330442Y142890
X305042Y142890
X305042Y200040
X330442Y200040
X330442Y250840
X305042Y250840
X305042Y288940
X330442Y288940
X330442Y333390
X305042Y333390
X412992Y288940
X565392Y276240
X565392Y250840
X641592Y333390
X666992Y333390
X698742Y333390
X724142Y333390
X755892Y333390
X781292Y333390
X813042Y333390
X838442Y333390
X825742Y377840
X800342Y377840
X774942Y377840
X749542Y377840
X724142Y377840
X698742Y377840
X673342Y377840
X647942Y377840
X647942Y454040
X673342Y454040
X698742Y454040
X724142Y454040
X749542Y454040
X774942Y454040
X800342Y454040
X825742Y454040
X806692Y295290
X781292Y295290
X755892Y295290
X755892Y244490
X755892Y225440
X781292Y219090
X781292Y200040
X806692Y200040
X806692Y219090
X832092Y219090
X832092Y269890
X730492Y168290
X730492Y142890
X730492Y117490
X755892Y98440
X730492Y92090
X781292Y123840
X806692Y123840
X654292Y117490
X654292Y142890
X654292Y168290
X654292Y92090
X603492Y47640
X578092Y47640
X552692Y47640
X527292Y47640
X501892Y47640
X476492Y47640
X451092Y47640
X425692Y47640
X412992Y441340
X412992Y466740
X412992Y492140
T04
X451092Y441340
X451092Y415940
X451092Y390540
X451092Y365140
X451092Y339740
X451092Y314340
X451092Y288940
X451092Y263540
X451092Y238140
X451092Y212740
X451092Y187340
X451092Y161940
X451092Y136540
X451092Y111140
X527292Y111140
X527292Y136540
X527292Y161940
X527292Y187340
X527292Y212740
X527292Y238140
X527292Y263540
X527292Y288940
X527292Y314340
X527292Y339740
X527292Y365140
X527292Y390540
X527292Y415940
X527292Y441340
T05
X527292Y485790
X552692Y485790
X578092Y485790
X501892Y485790
X476492Y485790
X451092Y485790
X374892Y415940
X374892Y390540
X374892Y365140
X374892Y339740
X317742Y390540
X317742Y415940
X317742Y441340
X673342Y250840
X698742Y250840
X870192Y403240
X870192Y428640
X806692Y85740
X781292Y85740
X781292Y41290
X806692Y41290
X393942Y111140
X368542Y111140
T06
X628892Y66690
X628892Y168290
T07
X717792Y34940
X317742Y41290
X324092Y498490
X870192Y498490
M30
